<svg width="22" height="22" viewBox="0 0 22 22" fill="none" xmlns="http://www.w3.org/2000/svg">
<path d="M18.2925 16.4631H16.4632V8.46003L10.9754 11.8899L5.48764 8.46003V16.4631H3.65837V5.48747H4.75593L10.9754 9.37467L17.195 5.48747H18.2925M18.2925 3.6582H3.65837C2.64313 3.6582 1.8291 4.47223 1.8291 5.48747V16.4631C1.8291 16.9482 2.02183 17.4135 2.36488 17.7566C2.70794 18.0996 3.17322 18.2923 3.65837 18.2923H18.2925C18.7777 18.2923 19.243 18.0996 19.586 17.7566C19.9291 17.4135 20.1218 16.9482 20.1218 16.4631V5.48747C20.1218 5.00232 19.9291 4.53704 19.586 4.19398C19.243 3.85093 18.7777 3.6582 18.2925 3.6582Z" fill="#A17D22"/>
</svg>
