<svg width="122" height="75" viewBox="0 0 122 75" fill="none" xmlns="http://www.w3.org/2000/svg">
<path d="M83.4946 10.904C82.2032 6.9357 79.3707 3.63723 75.62 1.73418C71.8693 -0.168867 67.5077 -0.520609 63.4948 0.756336C59.4818 2.03328 56.1462 4.83431 54.2217 8.54323C52.2972 12.2522 51.9415 16.5652 53.2329 20.5334C53.2329 20.5334 64.6112 8.54325 68.3637 15.7187C72.1162 22.8941 83.4946 10.904 83.4946 10.904Z" fill="white"/>
<path d="M56.082 29.6667C67.9155 29.9591 72.8756 23.3929 83.4822 13.8779C82.9921 24.4416 78.8314 34.6476 68.2281 56.3588C57.2801 34.3567 60.226 40.2515 56.082 29.6667Z" fill="white"/>
<path d="M58.7125 22.0304C58.8869 23.6643 60.2826 24.9412 61.9734 24.9412C62.4324 24.9417 62.8864 24.8459 63.3055 24.6601C62.5546 24.3542 61.7393 23.9537 60.9247 23.4876C60.1286 23.0325 59.3617 22.5262 58.7125 22.0304ZM66.3844 23.2296C66.226 23.0203 66.0117 22.7891 65.7508 22.5448C65.7011 22.7601 65.6325 22.9706 65.5458 23.1741C66.081 23.72 66.1645 24.0131 66.1453 24.0707C66.108 24.112 65.8276 24.1982 65.0617 24.0054C64.9521 23.9777 64.8321 23.944 64.7017 23.9043C64.6178 23.8787 64.5321 23.851 64.4448 23.8212C64.5819 23.665 64.7039 23.4961 64.8089 23.3169C64.8121 23.3116 64.8154 23.3062 64.8186 23.3006C65.1031 22.8088 65.2529 22.2514 65.2529 21.6841C65.253 21.5667 65.2468 21.4493 65.2343 21.3325C65.056 19.7008 63.6616 18.427 61.9734 18.427C61.2571 18.4266 60.5605 18.66 59.9908 19.0912C59.6454 19.3522 59.3553 19.6782 59.1368 20.0506C59.1338 20.0559 59.1304 20.0613 59.1273 20.0667C59.0234 20.2463 58.9371 20.4355 58.8696 20.6315C58.8001 20.5714 58.7331 20.5117 58.6685 20.4525C58.5681 20.36 58.479 20.2743 58.3998 20.1934C57.8488 19.6334 57.7832 19.3494 57.8005 19.2968C57.8408 19.2518 58.1378 19.1758 58.8837 19.3625C59.0184 19.1863 59.168 19.0219 59.3309 18.871C58.9795 18.7671 58.664 18.6979 58.3983 18.6674C57.8257 18.6023 57.451 18.7142 57.2842 19.0007C57.2238 19.104 57.1659 19.28 57.2335 19.53C57.3336 19.9012 57.6902 20.3517 58.195 20.8236C58.3558 20.974 58.5315 21.1265 58.719 21.2796C58.8554 21.3906 58.9985 21.5028 59.1457 21.6142C59.244 21.6882 59.3443 21.7622 59.4466 21.8362C59.549 21.9103 59.6527 21.9829 59.7578 22.0542C60.2313 22.3801 60.7316 22.6931 61.2223 22.9738C61.4004 23.0757 61.5783 23.1744 61.7559 23.2699C61.9336 23.3654 62.1098 23.4568 62.2846 23.544C62.6926 23.7476 63.0923 23.9312 63.4745 24.0886C63.6384 24.1563 63.7987 24.2189 63.9555 24.2767C64.177 24.3585 64.3909 24.4305 64.5948 24.4912L64.6153 24.4973C65.0947 24.639 65.4989 24.7136 65.8168 24.7193H65.8492C66.2524 24.7193 66.5256 24.6013 66.6613 24.3677C66.8306 24.0787 66.7373 23.6956 66.3844 23.2296Z" fill="white"/>
<g clip-path="url(#clip0_339_95)">
<path d="M87.7033 7.59903L88.8776 7.67887L89.9015 6.53362L88.1689 6.96098C88.1519 6.96544 88.1365 6.97434 88.1242 6.98676L87.6411 7.42334C87.626 7.43656 87.6152 7.45401 87.6102 7.47343C87.6051 7.49285 87.606 7.51335 87.6127 7.53227C87.6193 7.55119 87.6316 7.56767 87.6477 7.57957C87.6639 7.59147 87.6833 7.59825 87.7033 7.59903Z" fill="white"/>
<path d="M92.9273 5.43464L91.6598 5.43535C91.5531 5.43529 91.4477 5.45816 91.3507 5.50242C91.2537 5.54669 91.1674 5.6113 91.0975 5.69188L88.015 9.14207L87.1283 9.29377C87.0776 9.30295 87.0311 9.32782 86.9953 9.36487C86.9595 9.40192 86.9362 9.44927 86.9288 9.50025C86.9214 9.55122 86.9302 9.60324 86.9539 9.64896C86.9776 9.69467 87.0151 9.73178 87.0611 9.75503L88.0633 10.2484C88.0799 10.2567 88.0983 10.2607 88.1168 10.2598C88.1353 10.259 88.1532 10.2534 88.169 10.2437C88.3927 10.0966 89.1975 9.41735 90.1442 8.59465L90.8384 10.7605C90.8444 10.7793 90.8554 10.796 90.8702 10.809C90.885 10.822 90.9031 10.8307 90.9225 10.8342C90.9418 10.8376 90.9618 10.8357 90.9802 10.8287C90.9986 10.8216 91.0147 10.8097 91.0268 10.7942L91.4208 10.2903C91.4423 10.2626 91.4534 10.2281 91.4521 10.193L91.3547 7.53981C92.0312 6.94665 92.676 6.37444 93.1298 5.97034C93.1771 5.92953 93.2108 5.87515 93.2262 5.81457C93.2416 5.75399 93.238 5.69015 93.2159 5.63168C93.1938 5.57321 93.1543 5.52295 93.1026 5.48771C93.051 5.45246 92.9898 5.43394 92.9273 5.43464Z" fill="white"/>
</g>
<path d="M21.2132 37.0666C21.2768 37.0666 21.3086 37.1302 21.3086 37.2574C21.3086 37.3846 21.2768 37.4482 21.2132 37.4482C20.4288 37.4482 19.6868 37.7874 18.9872 38.4658C18.3088 39.1442 17.7576 40.0558 17.3336 41.2007L11.4505 56.9101C11.4293 56.9949 11.3127 57.0373 11.1007 57.0373C10.9099 57.0373 10.7933 56.9949 10.7509 56.9101L2.64173 39.706C2.28132 38.964 1.91032 38.4022 1.52871 38.0206C1.1471 37.639 0.712497 37.4482 0.22489 37.4482C0.161289 37.4482 0.129488 37.3846 0.129488 37.2574C0.129488 37.1302 0.161289 37.0666 0.22489 37.0666C0.479294 37.0666 0.670097 37.0772 0.797299 37.0984C0.945701 37.1196 1.1365 37.1408 1.36971 37.162C1.62411 37.162 2.01632 37.162 2.54633 37.162C3.73354 37.162 4.69816 37.162 5.44017 37.162C6.18218 37.1408 6.78639 37.1196 7.2528 37.0984C7.7192 37.0772 8.12201 37.0666 8.46121 37.0666C8.52482 37.0666 8.55662 37.1302 8.55662 37.2574C8.55662 37.3846 8.52482 37.4482 8.46121 37.4482C7.5496 37.4482 6.94539 37.7026 6.64859 38.2114C6.35178 38.7202 6.40478 39.4092 6.80759 40.2784L12.5953 52.617L11.1007 55.2247L16.4431 41.1053C16.8247 40.0664 16.8459 39.1972 16.5067 38.4976C16.1887 37.798 15.5103 37.4482 14.4715 37.4482C14.4079 37.4482 14.3761 37.3846 14.3761 37.2574C14.3761 37.1302 14.4079 37.0666 14.4715 37.0666C15.0863 37.0666 15.6693 37.0878 16.2205 37.1302C16.7717 37.1514 17.5032 37.162 18.4148 37.162C19.0084 37.162 19.4854 37.1514 19.8458 37.1302C20.2274 37.0878 20.6832 37.0666 21.2132 37.0666ZM36.4188 56.9419H22.363C22.2994 56.9419 22.2676 56.8783 22.2676 56.7511C22.2676 56.6239 22.2994 56.5603 22.363 56.5603C23.0202 56.5603 23.5078 56.5073 23.8258 56.4013C24.1438 56.2953 24.3558 56.0833 24.4618 55.7653C24.5678 55.4473 24.6208 54.9809 24.6208 54.3661V39.6424C24.6208 39.0276 24.5678 38.5718 24.4618 38.275C24.3558 37.957 24.1438 37.745 23.8258 37.639C23.5078 37.5118 23.0202 37.4482 22.363 37.4482C22.2994 37.4482 22.2676 37.3846 22.2676 37.2574C22.2676 37.1302 22.2994 37.0666 22.363 37.0666H35.8464C36.0584 37.0666 36.1644 37.162 36.1644 37.3528L36.228 41.5823C36.228 41.6247 36.175 41.6565 36.069 41.6777C35.963 41.6989 35.8888 41.6777 35.8464 41.6141C35.5072 40.3632 34.9348 39.4516 34.1292 38.8792C33.3236 38.2856 32.2635 37.9888 30.9491 37.9888H29.9951C29.5711 37.9888 29.2213 38.0524 28.9457 38.1796C28.6701 38.2856 28.4687 38.4658 28.3415 38.7202C28.2143 38.9746 28.1507 39.2926 28.1507 39.6742V54.2389C28.1507 54.6417 28.2037 54.9809 28.3097 55.2565C28.4157 55.5321 28.5747 55.7335 28.7867 55.8607C28.9987 55.9879 29.2743 56.0515 29.6135 56.0515H30.6629C32.3165 56.0515 33.6416 55.7123 34.638 55.0339C35.6344 54.3555 36.3658 53.306 36.8322 51.8856C36.8534 51.822 36.917 51.8114 37.023 51.8538C37.1502 51.875 37.2138 51.9068 37.2138 51.9492C37.129 52.564 37.0548 53.2954 36.9912 54.1435C36.9276 54.9703 36.8958 55.7441 36.8958 56.4649C36.8958 56.7829 36.7368 56.9419 36.4188 56.9419ZM34.638 49.8504C34.638 48.9812 34.3094 48.3028 33.6522 47.8152C32.995 47.3063 32.0303 47.0519 30.7583 47.0519H26.4653V46.1615H30.7901C32.0409 46.1615 32.9844 45.9495 33.6204 45.5255C34.2776 45.0803 34.6062 44.4867 34.6062 43.7447C34.6062 43.6811 34.6592 43.6493 34.7652 43.6493C34.8924 43.6493 34.956 43.6811 34.956 43.7447C34.956 44.4443 34.9454 44.9955 34.9242 45.3983C34.9242 45.7799 34.9242 46.1827 34.9242 46.6067C34.9242 47.1367 34.9348 47.6562 34.956 48.165C34.9984 48.6738 35.0196 49.2356 35.0196 49.8504C35.0196 49.8928 34.956 49.914 34.8288 49.914C34.7016 49.914 34.638 49.8928 34.638 49.8504ZM45.3788 39.6742V54.2389C45.3788 54.7477 45.4212 55.1399 45.506 55.4155C45.5908 55.6699 45.7604 55.8395 46.0149 55.9243C46.2905 56.0091 46.6827 56.0515 47.1915 56.0515H48.2727C49.9263 56.0515 51.3573 55.6063 52.5658 54.7159C53.7742 53.8254 54.5798 52.6382 54.9826 51.1542C55.0038 51.0906 55.0674 51.0694 55.1734 51.0906C55.2794 51.1118 55.3324 51.1542 55.3324 51.2178C55.2688 51.9174 55.2052 52.7654 55.1416 53.7618C55.078 54.7371 55.0462 55.6381 55.0462 56.4649C55.0462 56.7829 54.8872 56.9419 54.5692 56.9419H39.5594C39.517 56.9419 39.4958 56.8783 39.4958 56.7511C39.4958 56.6239 39.517 56.5603 39.5594 56.5603C40.2166 56.5603 40.7042 56.5073 41.0222 56.4013C41.3402 56.2953 41.5522 56.0833 41.6582 55.7653C41.7854 55.4473 41.849 54.9809 41.849 54.3661V39.6424C41.849 39.0276 41.7854 38.5718 41.6582 38.275C41.5522 37.957 41.3402 37.745 41.0222 37.639C40.7042 37.5118 40.2166 37.4482 39.5594 37.4482C39.517 37.4482 39.4958 37.3846 39.4958 37.2574C39.4958 37.1302 39.517 37.0666 39.5594 37.0666C40.0682 37.0666 40.6724 37.0878 41.372 37.1302C42.0928 37.1514 42.8348 37.162 43.598 37.162C44.4036 37.162 45.1456 37.1514 45.824 37.1302C46.5025 37.0878 47.1067 37.0666 47.6367 37.0666C47.7003 37.0666 47.7321 37.1302 47.7321 37.2574C47.7321 37.3846 47.7003 37.4482 47.6367 37.4482C47.0007 37.4482 46.5131 37.5118 46.1739 37.639C45.8558 37.745 45.6438 37.957 45.5378 38.275C45.4318 38.593 45.3788 39.0594 45.3788 39.6742Z" fill="white"/>
<path d="M98.846 56.9419H84.7902C84.7266 56.9419 84.6948 56.8783 84.6948 56.7511C84.6948 56.6239 84.7266 56.5603 84.7902 56.5603C85.4474 56.5603 85.935 56.5073 86.253 56.4013C86.571 56.2953 86.783 56.0833 86.889 55.7653C86.995 55.4473 87.048 54.9809 87.048 54.3661V39.6424C87.048 39.0276 86.995 38.5718 86.889 38.275C86.783 37.957 86.571 37.745 86.253 37.639C85.935 37.5118 85.4474 37.4482 84.7902 37.4482C84.7266 37.4482 84.6948 37.3846 84.6948 37.2574C84.6948 37.1302 84.7266 37.0666 84.7902 37.0666H98.2736C98.4856 37.0666 98.5916 37.162 98.5916 37.3528L98.6552 41.5823C98.6552 41.6247 98.6022 41.6565 98.4962 41.6777C98.3902 41.6989 98.316 41.6777 98.2736 41.6141C97.9344 40.3632 97.3619 39.4516 96.5563 38.8792C95.7507 38.2856 94.6907 37.9888 93.3763 37.9888H92.4223C91.9983 37.9888 91.6485 38.0524 91.3729 38.1796C91.0972 38.2856 90.8958 38.4658 90.7686 38.7202C90.6414 38.9746 90.5778 39.2926 90.5778 39.6742V54.2389C90.5778 54.6417 90.6308 54.9809 90.7368 55.2565C90.8428 55.5321 91.0018 55.7335 91.2139 55.8607C91.4259 55.9879 91.7015 56.0515 92.0407 56.0515H93.0901C94.7437 56.0515 96.0687 55.7123 97.0651 55.0339C98.0616 54.3555 98.793 53.306 99.2594 51.8856C99.2806 51.822 99.3442 51.8114 99.4502 51.8538C99.5774 51.875 99.641 51.9068 99.641 51.9492C99.5562 52.564 99.482 53.2954 99.4184 54.1435C99.3548 54.9703 99.323 55.7441 99.323 56.4649C99.323 56.7829 99.164 56.9419 98.846 56.9419ZM97.0651 49.8504C97.0651 48.9812 96.7365 48.3028 96.0793 47.8152C95.4221 47.3063 94.4575 47.0519 93.1855 47.0519H88.8924V46.1615H93.2173C94.4681 46.1615 95.4115 45.9495 96.0475 45.5255C96.7047 45.0803 97.0333 44.4867 97.0333 43.7447C97.0333 43.6811 97.0863 43.6493 97.1923 43.6493C97.3195 43.6493 97.3831 43.6811 97.3831 43.7447C97.3831 44.4443 97.3725 44.9955 97.3513 45.3983C97.3513 45.7799 97.3513 46.1827 97.3513 46.6067C97.3513 47.1367 97.3619 47.6562 97.3831 48.165C97.4255 48.6738 97.4467 49.2356 97.4467 49.8504C97.4467 49.8928 97.3831 49.914 97.2559 49.914C97.1287 49.914 97.0651 49.8928 97.0651 49.8504ZM108.092 37.798C106.799 37.798 105.697 38.2326 104.785 39.1018C103.895 39.9498 103.184 41.1583 102.654 42.7271C102.633 42.7907 102.57 42.8225 102.464 42.8225C102.358 42.8013 102.305 42.7589 102.305 42.6953C102.347 42.3985 102.389 41.9851 102.432 41.4551C102.474 40.9039 102.517 40.3102 102.559 39.6742C102.623 39.0382 102.665 38.4234 102.686 37.8298C102.729 37.2362 102.75 36.7486 102.75 36.367C102.75 36.261 102.803 36.208 102.909 36.208C103.036 36.208 103.1 36.261 103.1 36.367C103.1 36.579 103.206 36.738 103.418 36.844C103.651 36.9288 103.905 36.9924 104.181 37.0348C104.478 37.056 104.721 37.0666 104.912 37.0666C106.735 37.1302 108.866 37.162 111.304 37.162C112.788 37.162 113.975 37.1514 114.866 37.1302C115.756 37.0878 116.615 37.0666 117.442 37.0666C118.205 37.0666 118.777 37.0242 119.159 36.9394C119.562 36.8334 119.816 36.6108 119.922 36.2716C119.943 36.1868 120.007 36.1444 120.113 36.1444C120.24 36.1444 120.304 36.1868 120.304 36.2716C120.261 36.6108 120.219 37.0878 120.176 37.7026C120.155 38.2962 120.123 38.9322 120.081 39.6106C120.06 40.2678 120.039 40.8827 120.017 41.4551C119.996 42.0063 119.986 42.4197 119.986 42.6953C119.986 42.7589 119.933 42.7907 119.827 42.7907C119.721 42.7907 119.657 42.7589 119.636 42.6953C119.318 41.0205 118.714 39.7908 117.823 39.0064C116.954 38.2008 115.894 37.798 114.643 37.798C114.219 37.798 113.89 37.8616 113.657 37.9888C113.445 38.0948 113.297 38.2856 113.212 38.5612C113.148 38.8368 113.117 39.2184 113.117 39.706V54.3661C113.117 54.9809 113.18 55.4473 113.307 55.7653C113.435 56.0833 113.678 56.2953 114.039 56.4013C114.421 56.5073 114.993 56.5603 115.756 56.5603C115.82 56.5603 115.852 56.6239 115.852 56.7511C115.852 56.8783 115.82 56.9419 115.756 56.9419C115.163 56.9419 114.495 56.9313 113.753 56.9101C113.011 56.8889 112.194 56.8783 111.304 56.8783C110.456 56.8783 109.661 56.8889 108.919 56.9101C108.177 56.9313 107.499 56.9419 106.884 56.9419C106.82 56.9419 106.788 56.8783 106.788 56.7511C106.788 56.6239 106.82 56.5603 106.884 56.5603C107.626 56.5603 108.188 56.5073 108.569 56.4013C108.951 56.2953 109.205 56.0833 109.332 55.7653C109.481 55.4473 109.555 54.9809 109.555 54.3661V39.6424C109.555 39.176 109.513 38.8156 109.428 38.5612C109.364 38.2856 109.226 38.0948 109.014 37.9888C108.802 37.8616 108.495 37.798 108.092 37.798Z" fill="white"/>
<path d="M3.2722 29.2219C3.2404 29.2219 3.2245 29.1901 3.2245 29.1265C3.2245 29.0629 3.2404 29.0311 3.2722 29.0311C3.6432 29.0311 3.92411 29.0046 4.11491 28.9516C4.30571 28.8986 4.43291 28.7926 4.49651 28.6336C4.57072 28.4746 4.60782 28.2414 4.60782 27.934V20.5722C4.60782 20.339 4.58662 20.1588 4.54422 20.0316C4.51242 19.8938 4.44351 19.7984 4.33751 19.7454C4.23151 19.6818 4.07781 19.65 3.87641 19.65C3.2298 19.65 2.67859 19.8673 2.22278 20.3019C1.77757 20.7259 1.42247 21.3301 1.15746 22.1145C1.14686 22.1463 1.11506 22.1622 1.06206 22.1622C1.00906 22.1516 0.982562 22.1304 0.982562 22.0986C1.00376 21.9502 1.02496 21.7435 1.04616 21.4785C1.06736 21.2029 1.08856 20.9061 1.10976 20.5881C1.14156 20.2701 1.16276 19.9627 1.17336 19.6659C1.19456 19.3691 1.20516 19.1253 1.20516 18.9345C1.20516 18.8815 1.23167 18.855 1.28467 18.855C1.34827 18.855 1.38007 18.8815 1.38007 18.9345C1.38007 19.0405 1.43307 19.12 1.53907 19.173C1.65567 19.2154 1.78287 19.2472 1.92068 19.2684C2.06908 19.279 2.19098 19.2843 2.28638 19.2843C2.74219 19.2949 3.2404 19.3055 3.781 19.3161C4.32161 19.3267 4.88872 19.332 5.48233 19.332C5.75793 19.332 6.09184 19.332 6.48404 19.332C6.88685 19.332 7.27906 19.3267 7.66066 19.3161C8.05287 19.3055 8.35497 19.2949 8.56698 19.2843C9.25599 19.2525 9.8284 19.0776 10.2842 18.7596C10.7506 18.4416 11.0898 18.0865 11.3018 17.6942C11.323 17.6518 11.376 17.6359 11.4608 17.6465C11.5562 17.6465 11.6039 17.673 11.6039 17.726V27.934C11.6039 28.358 11.6622 28.6495 11.7788 28.8085C11.8954 28.9569 12.118 29.0311 12.4466 29.0311C12.489 29.0311 12.5102 29.0629 12.5102 29.1265C12.5102 29.1901 12.489 29.2219 12.4466 29.2219C12.2452 29.2219 12.0067 29.2166 11.7311 29.206C11.4555 29.1954 11.164 29.1901 10.8566 29.1901C10.5492 29.1901 10.2577 29.1954 9.9821 29.206C9.70649 29.2166 9.46269 29.2219 9.25069 29.2219C9.22949 29.2219 9.21889 29.1901 9.21889 29.1265C9.21889 29.0629 9.22949 29.0311 9.25069 29.0311C9.57929 29.0311 9.8019 28.9569 9.9185 28.8085C10.0457 28.6495 10.1093 28.358 10.1093 27.934V19.9203C10.1093 19.7401 9.998 19.65 9.7754 19.65H7.15186C6.93985 19.65 6.77555 19.6818 6.65895 19.7454C6.55295 19.7984 6.47875 19.8938 6.43634 20.0316C6.40454 20.1694 6.38864 20.3602 6.38864 20.604V27.934C6.38864 28.2414 6.42044 28.4746 6.48404 28.6336C6.54765 28.7926 6.66955 28.8986 6.84975 28.9516C7.04055 29.0046 7.32676 29.0311 7.70836 29.0311C7.74016 29.0311 7.75606 29.0629 7.75606 29.1265C7.75606 29.1901 7.74016 29.2219 7.70836 29.2219C7.41156 29.2219 7.07765 29.2166 6.70665 29.206C6.33564 29.1954 5.92754 29.1901 5.48233 29.1901C5.05832 29.1901 4.66082 29.1954 4.28981 29.206C3.91881 29.2166 3.5796 29.2219 3.2722 29.2219ZM13.5279 29.2219C13.5067 29.2219 13.4961 29.1901 13.4961 29.1265C13.4961 29.0629 13.5067 29.0311 13.5279 29.0311C13.8565 29.0311 14.0791 28.9569 14.1957 28.8085C14.3229 28.6495 14.3865 28.358 14.3865 27.934V25.6444C14.3865 24.5208 13.9519 23.9589 13.0826 23.9589C12.7646 23.9589 12.436 24.0437 12.0968 24.2133C11.7576 24.3724 11.4926 24.595 11.3018 24.8812V24.5791C11.6516 24.0702 12.0544 23.6621 12.5102 23.3547C12.9766 23.0473 13.4802 22.8936 14.0208 22.8936C14.6038 22.8936 15.0596 23.0791 15.3882 23.4501C15.7168 23.8211 15.8811 24.2981 15.8811 24.8812V27.934C15.8811 28.358 15.9394 28.6495 16.056 28.8085C16.1726 28.9569 16.3952 29.0311 16.7238 29.0311C16.7662 29.0311 16.7874 29.0629 16.7874 29.1265C16.7874 29.1901 16.7662 29.2219 16.7238 29.2219C16.5224 29.2219 16.2839 29.2166 16.0083 29.206C15.7327 29.1954 15.4412 29.1901 15.1338 29.1901C14.8264 29.1901 14.5349 29.1954 14.2593 29.206C13.9837 29.2166 13.7399 29.2219 13.5279 29.2219ZM20.7442 29.4127C20.0552 29.4127 19.4669 29.2696 18.9793 28.9834C18.5023 28.6972 18.1366 28.3209 17.8822 27.8545C17.6384 27.3775 17.5165 26.8687 17.5165 26.3281C17.5165 25.7027 17.6702 25.1356 17.9776 24.6268C18.285 24.1179 18.709 23.7098 19.2496 23.4024C19.7902 23.095 20.4103 22.9413 21.1099 22.9413C21.7353 22.9413 22.2335 23.0844 22.6045 23.3706C22.9861 23.6568 23.1769 24.1232 23.1769 24.7699C23.1769 24.9077 23.1663 25.0243 23.1451 25.1197C23.1239 25.2151 23.0762 25.2628 23.002 25.2628H21.4756C21.4968 24.6586 21.4385 24.1762 21.3007 23.8158C21.1629 23.4448 20.8979 23.2593 20.5057 23.2593C20.0817 23.2593 19.7425 23.4766 19.4881 23.9112C19.2443 24.3458 19.1224 24.9236 19.1224 25.6444C19.1224 26.2592 19.2178 26.7892 19.4086 27.2344C19.5994 27.6796 19.8803 28.0241 20.2513 28.2679C20.6223 28.5117 21.0781 28.6336 21.6187 28.6336C21.9367 28.6336 22.2017 28.5965 22.4137 28.5223C22.6363 28.4375 22.8801 28.3262 23.1451 28.1884C23.1663 28.1672 23.1928 28.1778 23.2246 28.2202C23.267 28.2626 23.2776 28.2997 23.2564 28.3315C22.8642 28.7237 22.4614 29.0046 22.048 29.1742C21.6452 29.3332 21.2106 29.4127 20.7442 29.4127ZM18.5659 25.2787L18.55 24.9766L22.0321 24.913V25.2628L18.5659 25.2787Z" fill="white"/>
<path d="M20.499 67.4854C20.3633 67.4854 20.2531 67.4472 20.1683 67.3709C20.0919 67.2946 20.0538 67.197 20.0538 67.0783V63.3767C20.0538 63.1647 19.9435 63.0587 19.7231 63.0587H18.9217C18.6588 63.0587 18.5274 62.9273 18.5274 62.6644C18.5274 62.4015 18.6588 62.2701 18.9217 62.2701H22.0636C22.1823 62.2701 22.2798 62.3082 22.3561 62.3846C22.4325 62.4524 22.4706 62.5457 22.4706 62.6644C22.4706 62.7831 22.4325 62.8806 22.3561 62.957C22.2798 63.0248 22.1823 63.0587 22.0636 63.0587H21.2749C21.0544 63.0587 20.9442 63.1647 20.9442 63.3767V67.0783C20.9442 67.197 20.9018 67.2946 20.817 67.3709C20.7407 67.4472 20.6347 67.4854 20.499 67.4854ZM31.4902 67.4854C31.38 67.4854 31.2782 67.443 31.1849 67.3582C31.1001 67.2818 31.0577 67.1886 31.0577 67.0783V62.9697C31.0577 62.7407 31.1341 62.5669 31.2867 62.4482C31.4478 62.3294 31.6174 62.2701 31.7955 62.2701H33.0421C33.3304 62.2701 33.5975 62.3337 33.8435 62.4609C34.0979 62.5796 34.3014 62.7534 34.454 62.9824C34.6067 63.2029 34.683 63.47 34.683 63.7838C34.683 64.0806 34.594 64.3647 34.4159 64.636C34.2463 64.8989 34.0258 65.077 33.7544 65.1703C33.8731 65.2212 33.9834 65.306 34.0851 65.4247C34.1954 65.5349 34.2929 65.6833 34.3777 65.8699L34.8356 66.9002C34.8611 66.9511 34.8738 67.0062 34.8738 67.0656C34.8738 67.2182 34.8229 67.3285 34.7212 67.3963C34.6279 67.4642 34.5304 67.4981 34.4286 67.4981C34.259 67.4981 34.1403 67.4175 34.0724 67.2564L33.5509 66.0353C33.4407 65.7893 33.3007 65.6197 33.1311 65.5264C32.9615 65.4332 32.775 65.3865 32.5714 65.3865H32.2534C32.033 65.3865 31.9227 65.5137 31.9227 65.7681V67.0783C31.9227 67.1886 31.8803 67.2818 31.7955 67.3582C31.7107 67.443 31.6089 67.4854 31.4902 67.4854ZM32.2026 64.6233H32.9149C33.1269 64.6233 33.3304 64.5555 33.5255 64.4198C33.729 64.2756 33.8307 64.0721 33.8307 63.8092C33.8307 63.5548 33.7375 63.364 33.5509 63.2368C33.3728 63.1096 33.1778 63.046 32.9658 63.046H32.2407C32.0287 63.046 31.9227 63.152 31.9227 63.364V64.3307C31.9227 64.5258 32.016 64.6233 32.2026 64.6233ZM43.6919 67.4854C43.5816 67.4854 43.4841 67.4472 43.3993 67.3709C43.3145 67.2946 43.2721 67.1928 43.2721 67.0656C43.2721 67.0232 43.2806 66.9681 43.2975 66.9002L44.8876 62.5881C44.9469 62.4439 45.036 62.3337 45.1547 62.2574C45.2734 62.181 45.4006 62.1429 45.5363 62.1429C45.672 62.1429 45.7992 62.181 45.9179 62.2574C46.0451 62.3337 46.1384 62.4439 46.1977 62.5881L47.8895 66.9002C47.9065 66.9681 47.915 67.0232 47.915 67.0656C47.915 67.1928 47.8726 67.2946 47.7878 67.3709C47.703 67.4472 47.6055 67.4854 47.4952 67.4854C47.4189 67.4854 47.3383 67.4642 47.2535 67.4218C47.1772 67.3878 47.1178 67.3285 47.0754 67.2437L46.6557 66.1243C46.6472 66.0734 46.6133 66.048 46.5539 66.048H44.6077C44.5484 66.048 44.5102 66.0734 44.4932 66.1243L44.1116 67.2437C44.0692 67.3285 44.0056 67.3878 43.9208 67.4218C43.8445 67.4642 43.7682 67.4854 43.6919 67.4854ZM44.9893 65.2848H46.1341C46.185 65.2848 46.2232 65.2678 46.2486 65.2339C46.2826 65.1915 46.291 65.1406 46.2741 65.0812L45.6635 63.3386C45.6381 63.2538 45.5999 63.2114 45.549 63.2114C45.4897 63.2114 45.4473 63.2538 45.4218 63.3386L44.8494 65.094C44.8324 65.1448 44.8367 65.1915 44.8621 65.2339C44.896 65.2678 44.9384 65.2848 44.9893 65.2848ZM58.2932 67.4854C58.149 67.4854 58.0091 67.4472 57.8734 67.3709C57.7462 67.303 57.6572 67.197 57.6063 67.0529L56.0798 62.7916C56.0629 62.7238 56.0544 62.6686 56.0544 62.6262C56.0544 62.499 56.0968 62.3973 56.1816 62.321C56.2664 62.2446 56.3639 62.2065 56.4742 62.2065C56.5505 62.2065 56.6268 62.2234 56.7031 62.2574C56.7879 62.2913 56.8515 62.3549 56.8939 62.4482L58.1787 66.2006C58.2041 66.2685 58.2465 66.3024 58.3059 66.3024C58.3652 66.3024 58.4076 66.2685 58.4331 66.2006L59.7941 62.4482C59.8365 62.3549 59.8959 62.2913 59.9722 62.2574C60.057 62.2234 60.1376 62.2065 60.2139 62.2065C60.3242 62.2065 60.4217 62.2446 60.5065 62.321C60.5913 62.3973 60.6337 62.499 60.6337 62.6262C60.6337 62.6686 60.6252 62.7238 60.6082 62.7916L58.9801 67.0529C58.9207 67.197 58.8274 67.303 58.7002 67.3709C58.573 67.4472 58.4373 67.4854 58.2932 67.4854ZM70.1122 67.3582C69.9002 67.3582 69.7306 67.2946 69.6034 67.1674C69.4762 67.0401 69.4126 66.8705 69.4126 66.6585V62.9315C69.4126 62.7365 69.4762 62.5796 69.6034 62.4609C69.7391 62.3337 69.896 62.2701 70.074 62.2701H71.9948C72.139 62.2701 72.2407 62.3082 72.3001 62.3846C72.3679 62.4524 72.4018 62.5414 72.4018 62.6517C72.4018 62.7534 72.3637 62.8425 72.2874 62.9188C72.2195 62.9951 72.122 63.0333 71.9948 63.0333H70.6337C70.4133 63.0333 70.303 63.1435 70.303 63.364V64.0636C70.303 64.2841 70.4048 64.3943 70.6083 64.3943H71.8676C72.0118 64.3943 72.1135 64.4325 72.1729 64.5088C72.2407 64.5852 72.2746 64.6742 72.2746 64.776C72.2746 64.8692 72.2365 64.9583 72.1602 65.0431C72.0923 65.1194 71.9948 65.1576 71.8676 65.1576H70.6083C70.4048 65.1576 70.303 65.2636 70.303 65.4756V66.2515C70.303 66.472 70.409 66.5822 70.621 66.5822H72.122C72.2662 66.5822 72.3679 66.6246 72.4273 66.7094C72.4951 66.7857 72.529 66.8748 72.529 66.9765C72.529 67.0783 72.4909 67.1674 72.4146 67.2437C72.3467 67.32 72.2492 67.3582 72.122 67.3582H70.1122ZM82.0732 67.3582C81.8612 67.3582 81.6916 67.2946 81.5644 67.1674C81.4372 67.0401 81.3736 66.8705 81.3736 66.6585V62.6262C81.3736 62.4821 81.4202 62.3761 81.5135 62.3082C81.6152 62.2404 81.7212 62.2065 81.8315 62.2065C81.9417 62.2065 82.0392 62.2404 82.124 62.3082C82.2173 62.3761 82.264 62.4821 82.264 62.6262V66.2388C82.264 66.366 82.2894 66.455 82.3403 66.5059C82.3912 66.5483 82.476 66.5695 82.5947 66.5695H83.9049C84.0406 66.5695 84.1381 66.6119 84.1974 66.6967C84.2653 66.7815 84.2992 66.8705 84.2992 66.9638C84.2992 67.0656 84.2653 67.1589 84.1974 67.2437C84.1381 67.32 84.0406 67.3582 83.9049 67.3582H82.0732ZM93.8354 67.3582C93.6234 67.3582 93.4538 67.2946 93.3266 67.1674C93.1994 67.0401 93.1358 66.8705 93.1358 66.6585V62.9315C93.1358 62.7365 93.1994 62.5796 93.3266 62.4609C93.4622 62.3337 93.6191 62.2701 93.7972 62.2701H95.718C95.8621 62.2701 95.9639 62.3082 96.0232 62.3846C96.0911 62.4524 96.125 62.5414 96.125 62.6517C96.125 62.7534 96.0868 62.8425 96.0105 62.9188C95.9427 62.9951 95.8452 63.0333 95.718 63.0333H94.3569C94.1364 63.0333 94.0262 63.1435 94.0262 63.364V64.0636C94.0262 64.2841 94.1279 64.3943 94.3315 64.3943H95.5908C95.7349 64.3943 95.8367 64.4325 95.896 64.5088C95.9639 64.5852 95.9978 64.6742 95.9978 64.776C95.9978 64.8692 95.9596 64.9583 95.8833 65.0431C95.8155 65.1194 95.718 65.1576 95.5908 65.1576H94.3315C94.1279 65.1576 94.0262 65.2636 94.0262 65.4756V66.2515C94.0262 66.472 94.1322 66.5822 94.3442 66.5822H95.8452C95.9893 66.5822 96.0911 66.6246 96.1504 66.7094C96.2183 66.7857 96.2522 66.8748 96.2522 66.9765C96.2522 67.0783 96.2141 67.1674 96.1377 67.2437C96.0699 67.32 95.9724 67.3582 95.8452 67.3582H93.8354ZM105.529 67.4854C105.419 67.4854 105.317 67.443 105.224 67.3582C105.139 67.2818 105.097 67.1886 105.097 67.0783V62.9697C105.097 62.7407 105.173 62.5669 105.326 62.4482C105.487 62.3294 105.656 62.2701 105.834 62.2701H107.081C107.369 62.2701 107.637 62.3337 107.882 62.4609C108.137 62.5796 108.34 62.7534 108.493 62.9824C108.646 63.2029 108.722 63.47 108.722 63.7838C108.722 64.0806 108.633 64.3647 108.455 64.636C108.285 64.8989 108.065 65.077 107.793 65.1703C107.912 65.2212 108.022 65.306 108.124 65.4247C108.234 65.5349 108.332 65.6833 108.417 65.8699L108.875 66.9002C108.9 66.9511 108.913 67.0062 108.913 67.0656C108.913 67.2182 108.862 67.3285 108.76 67.3963C108.667 67.4642 108.569 67.4981 108.468 67.4981C108.298 67.4981 108.179 67.4175 108.111 67.2564L107.59 66.0353C107.48 65.7893 107.34 65.6197 107.17 65.5264C107.001 65.4332 106.814 65.3865 106.61 65.3865H106.292C106.072 65.3865 105.962 65.5137 105.962 65.7681V67.0783C105.962 67.1886 105.919 67.2818 105.834 67.3582C105.75 67.443 105.648 67.4854 105.529 67.4854ZM106.242 64.6233H106.954C107.166 64.6233 107.369 64.5555 107.564 64.4198C107.768 64.2756 107.87 64.0721 107.87 63.8092C107.87 63.5548 107.776 63.364 107.59 63.2368C107.412 63.1096 107.217 63.046 107.005 63.046H106.28C106.068 63.046 105.962 63.152 105.962 63.364V64.3307C105.962 64.5258 106.055 64.6233 106.242 64.6233Z" fill="white"/>
<defs>
<clipPath id="clip0_339_95">
<rect width="7.08015" height="7.08015" fill="white" transform="translate(86.0234 5.64868) rotate(-12.2139)"/>
</clipPath>
</defs>
</svg>
