<svg width="160" height="98" viewBox="0 0 160 98" fill="none" xmlns="http://www.w3.org/2000/svg">
<path d="M109.08 14.2459C107.393 9.06157 103.693 4.75233 98.7925 2.26611C93.8925 -0.220107 88.1944 -0.679635 82.9517 0.988615C77.709 2.65686 73.3512 6.31624 70.837 11.1617C68.3228 16.0072 67.8581 21.6419 69.5451 26.8262C69.5451 26.8262 84.4103 11.1617 89.3127 20.536C94.215 29.9103 109.08 14.2459 109.08 14.2459Z" fill="url(#paint0_linear_339_187)"/>
<path d="M73.2656 38.7589C88.7254 39.1409 95.2054 30.5626 109.062 18.1318C108.422 31.9326 102.986 45.2661 89.1337 73.6305C74.8309 44.8861 78.6795 52.5873 73.2656 38.7589Z" fill="url(#paint1_linear_339_187)"/>
<path d="M76.7062 29.2698C76.9341 31.4191 78.7575 33.0988 80.9664 33.0988C81.5661 33.0995 82.1592 32.9735 82.7068 32.729C81.7257 32.3266 80.6607 31.7998 79.5964 31.1866C78.5564 30.588 77.5544 29.922 76.7062 29.2698ZM86.7291 30.8473C86.5222 30.5719 86.2422 30.2679 85.9014 29.9465C85.8364 30.2297 85.7468 30.5067 85.6336 30.7742C86.3328 31.4924 86.4418 31.878 86.4168 31.9537C86.3681 32.008 86.0017 32.1214 85.0012 31.8678C84.8579 31.8314 84.7011 31.7871 84.5309 31.7348C84.4211 31.7011 84.3092 31.6646 84.1952 31.6255C84.3743 31.42 84.5336 31.1978 84.6708 30.9622C84.675 30.9551 84.6793 30.948 84.6835 30.9407C85.0552 30.2937 85.2509 29.5605 85.2509 28.8143C85.251 28.6598 85.2429 28.5054 85.2266 28.3518C84.9936 26.2054 83.172 24.5298 80.9664 24.5298C80.0306 24.5293 79.1205 24.8362 78.3762 25.4035C77.9251 25.7468 77.546 26.1757 77.2606 26.6655C77.2567 26.6725 77.2523 26.6796 77.2481 26.6867C77.1125 26.923 76.9997 27.1718 76.9115 27.4296C76.8207 27.3506 76.7332 27.2721 76.6488 27.1942C76.5176 27.0725 76.4012 26.9598 76.2978 26.8534C75.5779 26.1168 75.4922 25.7431 75.5149 25.6739C75.5674 25.6148 75.9555 25.5147 76.93 25.7604C77.106 25.5286 77.3014 25.3123 77.5142 25.1138C77.0551 24.9772 76.643 24.8862 76.2958 24.846C75.5477 24.7603 75.0582 24.9076 74.8403 25.2844C74.7614 25.4203 74.6857 25.6518 74.7741 25.9807C74.9048 26.469 75.3707 27.0615 76.0302 27.6823C76.2403 27.8802 76.4699 28.0808 76.7148 28.2821C76.893 28.4282 77.0799 28.5757 77.2722 28.7223C77.4006 28.8197 77.5317 28.917 77.6654 29.0144C77.7991 29.1118 77.9346 29.2074 78.0719 29.3012C78.6905 29.7299 79.3441 30.1415 79.9851 30.5108C80.2179 30.6449 80.4503 30.7747 80.6823 30.9003C80.9144 31.0259 81.1446 31.1461 81.373 31.2609C81.9061 31.5286 82.4283 31.7701 82.9276 31.9773C83.1416 32.0662 83.3511 32.1487 83.5559 32.2246C83.8453 32.3322 84.1248 32.4269 84.3911 32.5068L84.4179 32.5148C85.0443 32.7013 85.5723 32.7994 85.9876 32.8069H86.0299C86.5567 32.8069 86.9136 32.6516 87.0909 32.3444C87.3121 31.9642 87.1902 31.4602 86.7291 30.8473Z" fill="#DDCFAE"/>
<g clip-path="url(#clip0_339_187)">
<path d="M114.58 9.92787L116.114 10.0322L117.451 8.53598L115.188 9.0943C115.166 9.10012 115.146 9.11175 115.129 9.12798L114.498 9.69834C114.479 9.71561 114.465 9.73841 114.458 9.76378C114.451 9.78915 114.452 9.81593 114.461 9.84065C114.47 9.86537 114.486 9.8869 114.507 9.90245C114.528 9.918 114.553 9.92685 114.58 9.92787Z" fill="#C69A2B"/>
<path d="M121.398 7.10127L119.742 7.1022C119.602 7.10212 119.465 7.132 119.338 7.18983C119.211 7.24765 119.098 7.33206 119.007 7.43733L114.98 11.9448L113.821 12.143C113.755 12.155 113.694 12.1875 113.648 12.2359C113.601 12.2843 113.571 12.3461 113.561 12.4127C113.551 12.4793 113.563 12.5473 113.594 12.607C113.625 12.6667 113.674 12.7152 113.734 12.7456L115.043 13.3902C115.065 13.401 115.089 13.4062 115.113 13.4051C115.137 13.404 115.16 13.3967 115.181 13.384C115.473 13.1919 116.525 12.3044 117.762 11.2296L118.669 14.0592C118.676 14.0837 118.691 14.1056 118.71 14.1226C118.729 14.1395 118.753 14.1509 118.778 14.1554C118.804 14.1599 118.83 14.1575 118.854 14.1483C118.878 14.1391 118.899 14.1235 118.915 14.1032L119.429 13.4449C119.457 13.4087 119.472 13.3637 119.47 13.3178L119.343 9.85155C120.227 9.07662 121.069 8.32906 121.662 7.80113C121.724 7.74781 121.768 7.67677 121.788 7.59763C121.808 7.51849 121.803 7.43507 121.775 7.35869C121.746 7.28231 121.694 7.21665 121.627 7.1706C121.559 7.12455 121.479 7.10035 121.398 7.10127Z" fill="#C69A2B"/>
</g>
<path d="M27.6335 47.2343C27.7166 47.2343 27.7581 47.3174 27.7581 47.4836C27.7581 47.6498 27.7166 47.7329 27.6335 47.7329C26.6087 47.7329 25.6393 48.176 24.7253 49.0623C23.839 49.9486 23.1189 51.1396 22.5649 52.6352L14.879 73.1586C14.8513 73.2694 14.699 73.3248 14.422 73.3248C14.1728 73.3248 14.0204 73.2694 13.965 73.1586L3.37097 50.6826C2.90012 49.7132 2.41543 48.9792 1.91688 48.4807C1.41834 47.9822 0.850551 47.7329 0.213521 47.7329C0.130431 47.7329 0.0888853 47.6498 0.0888853 47.4836C0.0888853 47.3174 0.130431 47.2343 0.213521 47.2343C0.545884 47.2343 0.795157 47.2482 0.961338 47.2759C1.15522 47.3036 1.40449 47.3313 1.70915 47.359C2.04152 47.359 2.55391 47.359 3.24633 47.359C4.79736 47.359 6.05757 47.359 7.02696 47.359C7.99636 47.3313 8.78572 47.3036 9.39505 47.2759C10.0044 47.2482 10.5306 47.2343 10.9738 47.2343C11.0569 47.2343 11.0984 47.3174 11.0984 47.4836C11.0984 47.6498 11.0569 47.7329 10.9738 47.7329C9.78281 47.7329 8.99344 48.0652 8.60569 48.73C8.21793 49.3947 8.28717 50.2948 8.81341 51.4304L16.3747 67.55L14.422 70.9567L21.4017 52.5106C21.9002 51.1534 21.9279 50.0179 21.4848 49.1039C21.0693 48.1899 20.183 47.7329 18.8259 47.7329C18.7428 47.7329 18.7012 47.6498 18.7012 47.4836C18.7012 47.3174 18.7428 47.2343 18.8259 47.2343C19.6291 47.2343 20.3907 47.262 21.1108 47.3174C21.831 47.3451 22.7865 47.359 23.9775 47.359C24.753 47.359 25.3762 47.3451 25.847 47.3174C26.3456 47.262 26.941 47.2343 27.6335 47.2343ZM47.4987 73.2002H29.1356C29.0525 73.2002 29.011 73.1171 29.011 72.9509C29.011 72.7847 29.0525 72.7017 29.1356 72.7017C29.9942 72.7017 30.6312 72.6324 31.0467 72.4939C31.4621 72.3554 31.7391 72.0785 31.8776 71.663C32.0161 71.2476 32.0853 70.6382 32.0853 69.835V50.5995C32.0853 49.7963 32.0161 49.2008 31.8776 48.8131C31.7391 48.3976 31.4621 48.1206 31.0467 47.9821C30.6312 47.816 29.9942 47.7329 29.1356 47.7329C29.0525 47.7329 29.011 47.6498 29.011 47.4836C29.011 47.3174 29.0525 47.2343 29.1356 47.2343H46.7508C47.0278 47.2343 47.1663 47.359 47.1663 47.6082L47.2494 53.1338C47.2494 53.1892 47.1801 53.2307 47.0417 53.2584C46.9032 53.2861 46.8062 53.2584 46.7508 53.1753C46.3077 51.5412 45.5599 50.3502 44.5074 49.6024C43.4549 48.8269 42.0701 48.4392 40.3528 48.4392H39.1065C38.5525 48.4392 38.0955 48.5222 37.7355 48.6884C37.3754 48.8269 37.1123 49.0623 36.9461 49.3947C36.7799 49.7271 36.6969 50.1425 36.6969 50.6411V69.6688C36.6969 70.1951 36.7661 70.6382 36.9046 70.9983C37.0431 71.3584 37.2508 71.6215 37.5278 71.7877C37.8047 71.9538 38.1648 72.0369 38.6079 72.0369H39.9789C42.1393 72.0369 43.8704 71.5938 45.1721 70.7075C46.4739 69.8212 47.4294 68.4502 48.0387 66.5945C48.0664 66.5114 48.1495 66.4975 48.288 66.5529C48.4542 66.5806 48.5373 66.6222 48.5373 66.6776C48.4265 67.4808 48.3296 68.4363 48.2465 69.5442C48.1634 70.6244 48.1218 71.6353 48.1218 72.577C48.1218 72.9925 47.9141 73.2002 47.4987 73.2002ZM45.1721 63.9356C45.1721 62.8 44.7428 61.9137 43.8842 61.2767C43.0256 60.6119 41.7654 60.2796 40.1036 60.2796H34.4949V59.1163H40.1451C41.7792 59.1163 43.0118 58.8393 43.8427 58.2854C44.7013 57.7038 45.1306 56.9283 45.1306 55.9589C45.1306 55.8758 45.1998 55.8342 45.3383 55.8342C45.5045 55.8342 45.5876 55.8758 45.5876 55.9589C45.5876 56.8729 45.5737 57.593 45.546 58.1192C45.546 58.6178 45.546 59.144 45.546 59.6979C45.546 60.3904 45.5599 61.0689 45.5876 61.7337C45.643 62.3984 45.6707 63.1324 45.6707 63.9356C45.6707 63.991 45.5876 64.0187 45.4214 64.0187C45.2552 64.0187 45.1721 63.991 45.1721 63.9356ZM59.2044 50.6411V69.6688C59.2044 70.3336 59.2598 70.846 59.3706 71.206C59.4814 71.5384 59.7029 71.76 60.0353 71.8707C60.3954 71.9815 60.9077 72.0369 61.5725 72.0369H62.985C65.1454 72.0369 67.0149 71.4553 68.5936 70.292C70.1724 69.1287 71.2248 67.5777 71.7511 65.6389C71.7788 65.5558 71.8619 65.5281 72.0004 65.5558C72.1388 65.5835 72.2081 65.6389 72.2081 65.722C72.125 66.636 72.0419 67.7439 71.9588 69.0457C71.8757 70.3197 71.8342 71.4968 71.8342 72.577C71.8342 72.9925 71.6265 73.2002 71.211 73.2002H51.6016C51.5462 73.2002 51.5185 73.1171 51.5185 72.9509C51.5185 72.7847 51.5462 72.7017 51.6016 72.7017C52.4602 72.7017 53.0972 72.6324 53.5127 72.4939C53.9281 72.3554 54.2051 72.0785 54.3436 71.663C54.5098 71.2476 54.5928 70.6382 54.5928 69.835V50.5995C54.5928 49.7963 54.5098 49.2008 54.3436 48.8131C54.2051 48.3976 53.9281 48.1206 53.5127 47.9821C53.0972 47.816 52.4602 47.7329 51.6016 47.7329C51.5462 47.7329 51.5185 47.6498 51.5185 47.4836C51.5185 47.3174 51.5462 47.2343 51.6016 47.2343C52.2663 47.2343 53.0557 47.262 53.9697 47.3174C54.9114 47.3451 55.8808 47.359 56.8778 47.359C57.9303 47.359 58.8997 47.3451 59.786 47.3174C60.6723 47.262 61.4617 47.2343 62.1541 47.2343C62.2372 47.2343 62.2787 47.3174 62.2787 47.4836C62.2787 47.6498 62.2372 47.7329 62.1541 47.7329C61.3232 47.7329 60.6862 47.816 60.243 47.9821C59.8276 48.1206 59.5506 48.3976 59.4121 48.8131C59.2736 49.2285 59.2044 49.8378 59.2044 50.6411Z" fill="#C69A2B"/>
<path d="M129.312 73.2002H110.948C110.865 73.2002 110.824 73.1171 110.824 72.9509C110.824 72.7847 110.865 72.7017 110.948 72.7017C111.807 72.7017 112.444 72.6324 112.86 72.4939C113.275 72.3554 113.552 72.0785 113.69 71.663C113.829 71.2476 113.898 70.6382 113.898 69.835V50.5995C113.898 49.7963 113.829 49.2008 113.69 48.8131C113.552 48.3976 113.275 48.1206 112.86 47.9821C112.444 47.816 111.807 47.7329 110.948 47.7329C110.865 47.7329 110.824 47.6498 110.824 47.4836C110.824 47.3174 110.865 47.2343 110.948 47.2343H128.564C128.841 47.2343 128.979 47.359 128.979 47.6082L129.062 53.1338C129.062 53.1892 128.993 53.2307 128.855 53.2584C128.716 53.2861 128.619 53.2584 128.564 53.1753C128.121 51.5412 127.373 50.3502 126.32 49.6024C125.268 48.8269 123.883 48.4392 122.166 48.4392H120.919C120.365 48.4392 119.908 48.5222 119.548 48.6884C119.188 48.8269 118.925 49.0623 118.759 49.3947C118.593 49.7271 118.51 50.1425 118.51 50.6411V69.6688C118.51 70.1951 118.579 70.6382 118.717 70.9983C118.856 71.3584 119.064 71.6215 119.341 71.7877C119.618 71.9538 119.978 72.0369 120.421 72.0369H121.792C123.952 72.0369 125.683 71.5938 126.985 70.7075C128.287 69.8212 129.242 68.4502 129.852 66.5945C129.879 66.5114 129.962 66.4975 130.101 66.5529C130.267 66.5806 130.35 66.6222 130.35 66.6776C130.239 67.4808 130.142 68.4363 130.059 69.5442C129.976 70.6244 129.935 71.6353 129.935 72.577C129.935 72.9925 129.727 73.2002 129.312 73.2002ZM126.985 63.9356C126.985 62.8 126.556 61.9137 125.697 61.2767C124.838 60.6119 123.578 60.2796 121.916 60.2796H116.308V59.1163H121.958C123.592 59.1163 124.825 58.8393 125.656 58.2854C126.514 57.7038 126.943 56.9283 126.943 55.9589C126.943 55.8758 127.013 55.8342 127.151 55.8342C127.317 55.8342 127.4 55.8758 127.4 55.9589C127.4 56.8729 127.387 57.593 127.359 58.1192C127.359 58.6178 127.359 59.144 127.359 59.6979C127.359 60.3904 127.373 61.0689 127.4 61.7337C127.456 62.3984 127.484 63.1324 127.484 63.9356C127.484 63.991 127.4 64.0187 127.234 64.0187C127.068 64.0187 126.985 63.991 126.985 63.9356ZM141.391 48.1899C139.702 48.1899 138.261 48.7577 137.07 49.8932C135.907 51.0011 134.979 52.5798 134.287 54.6294C134.259 54.7125 134.176 54.754 134.038 54.754C133.899 54.7264 133.83 54.671 133.83 54.5879C133.885 54.2001 133.941 53.66 133.996 52.9676C134.051 52.2475 134.107 51.472 134.162 50.6411C134.245 49.8101 134.301 49.0069 134.328 48.2314C134.384 47.4559 134.412 46.8189 134.412 46.3203C134.412 46.1819 134.481 46.1126 134.619 46.1126C134.785 46.1126 134.869 46.1819 134.869 46.3203C134.869 46.5973 135.007 46.805 135.284 46.9435C135.589 47.0543 135.921 47.1374 136.281 47.1928C136.669 47.2205 136.987 47.2343 137.237 47.2343C139.619 47.3174 142.402 47.359 145.587 47.359C147.526 47.359 149.077 47.3451 150.24 47.3174C151.404 47.262 152.525 47.2343 153.606 47.2343C154.603 47.2343 155.35 47.1789 155.849 47.0682C156.375 46.9297 156.708 46.6389 156.846 46.1957C156.874 46.0849 156.957 46.0295 157.095 46.0295C157.262 46.0295 157.345 46.0849 157.345 46.1957C157.289 46.6389 157.234 47.262 157.178 48.0652C157.151 48.8408 157.109 49.6717 157.054 50.558C157.026 51.4166 156.998 52.2198 156.971 52.9676C156.943 53.6877 156.929 54.2278 156.929 54.5879C156.929 54.671 156.86 54.7125 156.721 54.7125C156.583 54.7125 156.5 54.671 156.472 54.5879C156.057 52.3998 155.267 50.7934 154.104 49.7686C152.968 48.7161 151.584 48.1899 149.95 48.1899C149.396 48.1899 148.966 48.273 148.662 48.4392C148.385 48.5776 148.191 48.8269 148.08 49.187C147.997 49.547 147.955 50.0456 147.955 50.6826V69.835C147.955 70.6382 148.038 71.2476 148.205 71.663C148.371 72.0785 148.689 72.3554 149.16 72.4939C149.659 72.6324 150.407 72.7017 151.404 72.7017C151.487 72.7017 151.528 72.7847 151.528 72.9509C151.528 73.1171 151.487 73.2002 151.404 73.2002C150.628 73.2002 149.756 73.1863 148.786 73.1586C147.817 73.131 146.751 73.1171 145.587 73.1171C144.479 73.1171 143.441 73.131 142.471 73.1586C141.502 73.1863 140.616 73.2002 139.812 73.2002C139.729 73.2002 139.688 73.1171 139.688 72.9509C139.688 72.7847 139.729 72.7017 139.812 72.7017C140.782 72.7017 141.516 72.6324 142.014 72.4939C142.513 72.3554 142.845 72.0785 143.011 71.663C143.205 71.2476 143.302 70.6382 143.302 69.835V50.5995C143.302 49.9902 143.247 49.5193 143.136 49.187C143.053 48.8269 142.873 48.5776 142.596 48.4392C142.319 48.273 141.917 48.1899 141.391 48.1899Z" fill="#C69A2B"/>
<path d="M4.09766 37.5811C4.05612 37.5811 4.03534 37.5395 4.03534 37.4564C4.03534 37.3733 4.05612 37.3318 4.09766 37.3318C4.58236 37.3318 4.94934 37.2972 5.19861 37.2279C5.44789 37.1587 5.61407 37.0202 5.69716 36.8125C5.7941 36.6047 5.84257 36.3001 5.84257 35.8985V26.2807C5.84257 25.976 5.81487 25.7406 5.75948 25.5744C5.71793 25.3944 5.62792 25.2698 5.48943 25.2005C5.35095 25.1174 5.15014 25.0759 4.88702 25.0759C4.04227 25.0759 3.32215 25.3598 2.72666 25.9276C2.14503 26.4815 1.6811 27.2709 1.33489 28.2957C1.32104 28.3372 1.2795 28.358 1.21026 28.358C1.14101 28.3441 1.10639 28.3164 1.10639 28.2749C1.13409 28.081 1.16179 27.811 1.18948 27.4648C1.21718 27.1047 1.24488 26.7169 1.27258 26.3015C1.31412 25.886 1.34182 25.4844 1.35567 25.0967C1.38336 24.7089 1.39721 24.3904 1.39721 24.1411C1.39721 24.0719 1.43183 24.0373 1.50107 24.0373C1.58417 24.0373 1.62571 24.0719 1.62571 24.1411C1.62571 24.2796 1.69495 24.3835 1.83344 24.4527C1.98577 24.5081 2.15195 24.5497 2.33198 24.5774C2.52586 24.5912 2.68512 24.5981 2.80975 24.5981C3.40524 24.612 4.05612 24.6258 4.76239 24.6397C5.46866 24.6535 6.20955 24.6604 6.98506 24.6604C7.34512 24.6604 7.78135 24.6604 8.29374 24.6604C8.81999 24.6604 9.33238 24.6535 9.83092 24.6397C10.3433 24.6258 10.738 24.612 11.015 24.5981C11.9151 24.5566 12.6629 24.3281 13.2584 23.9126C13.8677 23.4972 14.3109 23.0332 14.5879 22.5209C14.6156 22.4655 14.6848 22.4447 14.7956 22.4585C14.9202 22.4585 14.9825 22.4932 14.9825 22.5624V35.8985C14.9825 36.4524 15.0587 36.8332 15.211 37.041C15.3634 37.2348 15.6542 37.3318 16.0835 37.3318C16.1389 37.3318 16.1666 37.3733 16.1666 37.4564C16.1666 37.5395 16.1389 37.5811 16.0835 37.5811C15.8204 37.5811 15.5088 37.5741 15.1487 37.5603C14.7887 37.5464 14.4078 37.5395 14.0062 37.5395C13.6046 37.5395 13.2238 37.5464 12.8637 37.5603C12.5037 37.5741 12.1852 37.5811 11.9082 37.5811C11.8805 37.5811 11.8666 37.5395 11.8666 37.4564C11.8666 37.3733 11.8805 37.3318 11.9082 37.3318C12.3375 37.3318 12.6283 37.2348 12.7806 37.041C12.9468 36.8332 13.0299 36.4524 13.0299 35.8985V25.429C13.0299 25.1936 12.8845 25.0759 12.5937 25.0759H9.1662C8.88923 25.0759 8.67458 25.1174 8.52224 25.2005C8.38376 25.2698 8.28682 25.3944 8.23143 25.5744C8.18988 25.7545 8.16911 26.0037 8.16911 26.3223V35.8985C8.16911 36.3001 8.21065 36.6047 8.29374 36.8125C8.37683 37.0202 8.53609 37.1587 8.77152 37.2279C9.02079 37.2972 9.3947 37.3318 9.89324 37.3318C9.93479 37.3318 9.95556 37.3733 9.95556 37.4564C9.95556 37.5395 9.93479 37.5811 9.89324 37.5811C9.50548 37.5811 9.06926 37.5741 8.58456 37.5603C8.09987 37.5464 7.5667 37.5395 6.98506 37.5395C6.43113 37.5395 5.91181 37.5464 5.42711 37.5603C4.94242 37.5741 4.49927 37.5811 4.09766 37.5811ZM17.496 37.5811C17.4683 37.5811 17.4545 37.5395 17.4545 37.4564C17.4545 37.3733 17.4683 37.3318 17.496 37.3318C17.9253 37.3318 18.2162 37.2348 18.3685 37.041C18.5347 36.8332 18.6178 36.4524 18.6178 35.8985V32.9072C18.6178 31.4393 18.05 30.7053 16.9144 30.7053C16.499 30.7053 16.0697 30.8161 15.6265 31.0377C15.1834 31.2454 14.8371 31.5362 14.5879 31.9101V31.5154C15.0449 30.8507 15.5711 30.3175 16.1666 29.9159C16.7759 29.5143 17.4337 29.3135 18.14 29.3135C18.9017 29.3135 19.4971 29.5559 19.9264 30.0406C20.3558 30.5253 20.5704 31.1484 20.5704 31.9101V35.8985C20.5704 36.4524 20.6466 36.8332 20.7989 37.041C20.9512 37.2348 21.2421 37.3318 21.6714 37.3318C21.7267 37.3318 21.7544 37.3733 21.7544 37.4564C21.7544 37.5395 21.7267 37.5811 21.6714 37.5811C21.4082 37.5811 21.0966 37.5741 20.7366 37.5603C20.3765 37.5464 19.9957 37.5395 19.5941 37.5395C19.1925 37.5395 18.8116 37.5464 18.4516 37.5603C18.0915 37.5741 17.773 37.5811 17.496 37.5811ZM26.9238 37.8303C26.0236 37.8303 25.255 37.6434 24.618 37.2695C23.9948 36.8956 23.517 36.4039 23.1847 35.7946C22.8662 35.1714 22.7069 34.5067 22.7069 33.8004C22.7069 32.9834 22.9077 32.2425 23.3093 31.5777C23.7109 30.913 24.2649 30.3799 24.9711 29.9783C25.6774 29.5766 26.4875 29.3758 27.4015 29.3758C28.2186 29.3758 28.8695 29.5628 29.3542 29.9367C29.8527 30.3106 30.102 30.9199 30.102 31.7647C30.102 31.9447 30.0881 32.0971 30.0604 32.2217C30.0327 32.3463 29.9704 32.4087 29.8735 32.4087H27.8793C27.907 31.6193 27.8308 30.9892 27.6508 30.5183C27.4708 30.0336 27.1246 29.7913 26.6122 29.7913C26.0582 29.7913 25.6151 30.0752 25.2827 30.643C24.9642 31.2108 24.8049 31.9655 24.8049 32.9072C24.8049 33.7104 24.9296 34.4028 25.1789 34.9845C25.4281 35.5661 25.7951 36.0162 26.2798 36.3347C26.7645 36.6532 27.36 36.8125 28.0663 36.8125C28.4817 36.8125 28.8279 36.764 29.1049 36.6671C29.3957 36.5563 29.7142 36.4109 30.0604 36.2308C30.0881 36.2031 30.1228 36.217 30.1643 36.2724C30.2197 36.3278 30.2335 36.3762 30.2058 36.4178C29.6935 36.9302 29.1672 37.2972 28.6271 37.5187C28.1009 37.7265 27.5331 37.8303 26.9238 37.8303ZM24.0779 32.4294L24.0571 32.0347L28.6063 31.9517V32.4087L24.0779 32.4294Z" fill="#C69A2B"/>
<path d="M26.836 87.7946C26.6587 87.7946 26.5147 87.7447 26.4039 87.645C26.3042 87.5453 26.2544 87.4179 26.2544 87.2628V82.4269C26.2544 82.15 26.1103 82.0115 25.8223 82.0115H24.7754C24.4319 82.0115 24.2602 81.8398 24.2602 81.4963C24.2602 81.1529 24.4319 80.9812 24.7754 80.9812H28.88C29.0351 80.9812 29.1625 81.031 29.2623 81.1307C29.362 81.2194 29.4118 81.3412 29.4118 81.4963C29.4118 81.6514 29.362 81.7788 29.2623 81.8785C29.1625 81.9672 29.0351 82.0115 28.88 82.0115H27.8497C27.5617 82.0115 27.4176 82.15 27.4176 82.4269V87.2628C27.4176 87.4179 27.3622 87.5453 27.2515 87.645C27.1517 87.7447 27.0133 87.7946 26.836 87.7946ZM41.1954 87.7946C41.0514 87.7946 40.9184 87.7392 40.7965 87.6284C40.6858 87.5287 40.6304 87.4068 40.6304 87.2628V81.8952C40.6304 81.596 40.7301 81.3689 40.9295 81.2138C41.14 81.0587 41.3616 80.9812 41.5942 80.9812H43.2228C43.5995 80.9812 43.9485 81.0642 44.2697 81.2304C44.6021 81.3855 44.868 81.6126 45.0674 81.9118C45.2668 82.1998 45.3665 82.5488 45.3665 82.9587C45.3665 83.3465 45.2502 83.7176 45.0176 84.0721C44.796 84.4156 44.5079 84.6482 44.1534 84.7701C44.3085 84.8366 44.4525 84.9474 44.5855 85.1025C44.7295 85.2465 44.8569 85.4404 44.9677 85.6841L45.566 87.0302C45.5992 87.0966 45.6158 87.1686 45.6158 87.2462C45.6158 87.4456 45.5493 87.5896 45.4164 87.6783C45.2945 87.7669 45.1671 87.8112 45.0342 87.8112C44.8126 87.8112 44.6575 87.706 44.5689 87.4955L43.8875 85.9001C43.7435 85.5788 43.5607 85.3573 43.3391 85.2354C43.1175 85.1135 42.8738 85.0526 42.6079 85.0526H42.1925C41.9044 85.0526 41.7604 85.2188 41.7604 85.5511V87.2628C41.7604 87.4068 41.705 87.5287 41.5942 87.6284C41.4834 87.7392 41.3505 87.7946 41.1954 87.7946ZM42.126 84.0555H43.0566C43.3336 84.0555 43.5995 83.9669 43.8543 83.7896C44.1202 83.6013 44.2531 83.3354 44.2531 82.992C44.2531 82.6596 44.1313 82.4103 43.8875 82.2441C43.6549 82.078 43.4001 81.9949 43.1231 81.9949H42.1759C41.8989 81.9949 41.7604 82.1333 41.7604 82.4103V83.6733C41.7604 83.9281 41.8823 84.0555 42.126 84.0555ZM57.1361 87.7946C56.9921 87.7946 56.8647 87.7447 56.7539 87.645C56.6431 87.5453 56.5877 87.4124 56.5877 87.2462C56.5877 87.1908 56.5988 87.1188 56.6209 87.0302L58.6982 81.3966C58.7757 81.2083 58.8921 81.0642 59.0472 80.9645C59.2023 80.8648 59.3685 80.815 59.5457 80.815C59.723 80.815 59.8892 80.8648 60.0443 80.9645C60.2104 81.0642 60.3323 81.2083 60.4099 81.3966L62.6201 87.0302C62.6422 87.1188 62.6533 87.1908 62.6533 87.2462C62.6533 87.4124 62.5979 87.5453 62.4871 87.645C62.3763 87.7447 62.2489 87.7946 62.1049 87.7946C62.0052 87.7946 61.9 87.7669 61.7892 87.7115C61.6895 87.6672 61.6119 87.5896 61.5565 87.4789L61.0081 86.0165C60.997 85.95 60.9527 85.9167 60.8752 85.9167H58.3326C58.255 85.9167 58.2052 85.95 58.183 86.0165L57.6845 87.4789C57.6291 87.5896 57.546 87.6672 57.4352 87.7115C57.3355 87.7669 57.2358 87.7946 57.1361 87.7946ZM58.8311 84.9197H60.3268C60.3932 84.9197 60.4431 84.8975 60.4763 84.8532C60.5206 84.7978 60.5317 84.7313 60.5096 84.6538L59.7119 82.3771C59.6787 82.2663 59.6288 82.2109 59.5623 82.2109C59.4848 82.2109 59.4294 82.2663 59.3962 82.3771L58.6483 84.6704C58.6262 84.7369 58.6317 84.7978 58.665 84.8532C58.7093 84.8975 58.7647 84.9197 58.8311 84.9197ZM76.2118 87.7946C76.0234 87.7946 75.8406 87.7447 75.6634 87.645C75.4972 87.5564 75.3809 87.4179 75.3144 87.2296L73.3202 81.6625C73.2981 81.5739 73.287 81.5019 73.287 81.4465C73.287 81.2803 73.3424 81.1473 73.4532 81.0476C73.5639 80.9479 73.6913 80.8981 73.8354 80.8981C73.9351 80.8981 74.0348 80.9202 74.1345 80.9645C74.2453 81.0089 74.3284 81.0919 74.3838 81.2138L76.0622 86.1162C76.0954 86.2048 76.1508 86.2491 76.2284 86.2491C76.3059 86.2491 76.3613 86.2048 76.3946 86.1162L78.1727 81.2138C78.2281 81.0919 78.3057 81.0089 78.4054 80.9645C78.5162 80.9202 78.6214 80.8981 78.7211 80.8981C78.8651 80.8981 78.9925 80.9479 79.1033 81.0476C79.2141 81.1473 79.2695 81.2803 79.2695 81.4465C79.2695 81.5019 79.2584 81.5739 79.2363 81.6625L77.1091 87.2296C77.0316 87.4179 76.9097 87.5564 76.7435 87.645C76.5774 87.7447 76.4001 87.7946 76.2118 87.7946ZM91.6526 87.6284C91.3757 87.6284 91.1541 87.5453 90.9879 87.3791C90.8217 87.213 90.7386 86.9914 90.7386 86.7144V81.8453C90.7386 81.5905 90.8217 81.3855 90.9879 81.2304C91.1652 81.0642 91.3701 80.9812 91.6028 80.9812H94.1121C94.3005 80.9812 94.4334 81.031 94.511 81.1307C94.5996 81.2194 94.6439 81.3357 94.6439 81.4797C94.6439 81.6126 94.594 81.729 94.4943 81.8287C94.4057 81.9284 94.2783 81.9782 94.1121 81.9782H92.334C92.0459 81.9782 91.9019 82.1223 91.9019 82.4103V83.3243C91.9019 83.6124 92.0348 83.7564 92.3007 83.7564H93.9459C94.1343 83.7564 94.2672 83.8062 94.3448 83.906C94.4334 84.0057 94.4777 84.122 94.4777 84.2549C94.4777 84.3768 94.4279 84.4931 94.3282 84.6039C94.2395 84.7036 94.1121 84.7535 93.9459 84.7535H92.3007C92.0348 84.7535 91.9019 84.892 91.9019 85.1689V86.1826C91.9019 86.4707 92.0404 86.6147 92.3174 86.6147H94.2783C94.4666 86.6147 94.5996 86.6701 94.6771 86.7809C94.7658 86.8806 94.8101 86.9969 94.8101 87.1299C94.8101 87.2628 94.7602 87.3791 94.6605 87.4789C94.5719 87.5786 94.4445 87.6284 94.2783 87.6284H91.6526ZM107.279 87.6284C107.002 87.6284 106.78 87.5453 106.614 87.3791C106.448 87.213 106.365 86.9914 106.365 86.7144V81.4465C106.365 81.2581 106.426 81.1196 106.548 81.031C106.681 80.9424 106.819 80.8981 106.963 80.8981C107.107 80.8981 107.235 80.9424 107.345 81.031C107.467 81.1196 107.528 81.2581 107.528 81.4465V86.166C107.528 86.3322 107.561 86.4485 107.628 86.515C107.694 86.5704 107.805 86.5981 107.96 86.5981H109.672C109.849 86.5981 109.977 86.6535 110.054 86.7643C110.143 86.8751 110.187 86.9914 110.187 87.1133C110.187 87.2462 110.143 87.3681 110.054 87.4789C109.977 87.5786 109.849 87.6284 109.672 87.6284H107.279ZM122.645 87.6284C122.369 87.6284 122.147 87.5453 121.981 87.3791C121.815 87.213 121.731 86.9914 121.731 86.7144V81.8453C121.731 81.5905 121.815 81.3855 121.981 81.2304C122.158 81.0642 122.363 80.9812 122.596 80.9812H125.105C125.293 80.9812 125.426 81.031 125.504 81.1307C125.592 81.2194 125.637 81.3357 125.637 81.4797C125.637 81.6126 125.587 81.729 125.487 81.8287C125.399 81.9284 125.271 81.9782 125.105 81.9782H123.327C123.039 81.9782 122.895 82.1223 122.895 82.4103V83.3243C122.895 83.6124 123.028 83.7564 123.294 83.7564H124.939C125.127 83.7564 125.26 83.8062 125.338 83.906C125.426 84.0057 125.471 84.122 125.471 84.2549C125.471 84.3768 125.421 84.4931 125.321 84.6039C125.232 84.7036 125.105 84.7535 124.939 84.7535H123.294C123.028 84.7535 122.895 84.892 122.895 85.1689V86.1826C122.895 86.4707 123.033 86.6147 123.31 86.6147H125.271C125.459 86.6147 125.592 86.6701 125.67 86.7809C125.759 86.8806 125.803 86.9969 125.803 87.1299C125.803 87.2628 125.753 87.3791 125.653 87.4789C125.565 87.5786 125.437 87.6284 125.271 87.6284H122.645ZM137.923 87.7946C137.779 87.7946 137.646 87.7392 137.524 87.6284C137.413 87.5287 137.358 87.4068 137.358 87.2628V81.8952C137.358 81.596 137.457 81.3689 137.657 81.2138C137.867 81.0587 138.089 80.9812 138.322 80.9812H139.95C140.327 80.9812 140.676 81.0642 140.997 81.2304C141.329 81.3855 141.595 81.6126 141.795 81.9118C141.994 82.1998 142.094 82.5488 142.094 82.9587C142.094 83.3465 141.978 83.7176 141.745 84.0721C141.523 84.4156 141.235 84.6482 140.881 84.7701C141.036 84.8366 141.18 84.9474 141.313 85.1025C141.457 85.2465 141.584 85.4404 141.695 85.6841L142.293 87.0302C142.327 87.0966 142.343 87.1686 142.343 87.2462C142.343 87.4456 142.277 87.5896 142.144 87.6783C142.022 87.7669 141.894 87.8112 141.762 87.8112C141.54 87.8112 141.385 87.706 141.296 87.4955L140.615 85.9001C140.471 85.5788 140.288 85.3573 140.066 85.2354C139.845 85.1135 139.601 85.0526 139.335 85.0526H138.92C138.632 85.0526 138.488 85.2188 138.488 85.5511V87.2628C138.488 87.4068 138.432 87.5287 138.322 87.6284C138.211 87.7392 138.078 87.7946 137.923 87.7946ZM138.853 84.0555H139.784C140.061 84.0555 140.327 83.9669 140.582 83.7896C140.848 83.6013 140.98 83.3354 140.98 82.992C140.98 82.6596 140.859 82.4103 140.615 82.2441C140.382 82.078 140.127 81.9949 139.85 81.9949H138.903C138.626 81.9949 138.488 82.1333 138.488 82.4103V83.6733C138.488 83.9281 138.61 84.0555 138.853 84.0555Z" fill="white"/>
<defs>
<linearGradient id="paint0_linear_339_187" x1="82.8402" y1="-0.110956" x2="97.1093" y2="20.7741" gradientUnits="userSpaceOnUse">
<stop stop-color="#C69A2B"/>
<stop offset="1" stop-color="#E5DAC0" stop-opacity="0.9"/>
</linearGradient>
<linearGradient id="paint1_linear_339_187" x1="97.1107" y1="26.4874" x2="91.164" y2="73.6305" gradientUnits="userSpaceOnUse">
<stop stop-color="#E5DAC0" stop-opacity="0.9"/>
<stop offset="1" stop-color="#C69A2B"/>
</linearGradient>
<clipPath id="clip0_339_187">
<rect width="9.24978" height="9.24978" fill="white" transform="translate(112.383 7.37988) rotate(-12.2139)"/>
</clipPath>
</defs>
</svg>
